<svg version="1.1" id="Layer_1" xmlns="http://www.w3.org/2000/svg" xmlns:xlink="http://www.w3.org/1999/xlink" x="0px" y="0px"
	 width="100%" viewBox="0 0 225 225" enable-background="new 0 0 225 225" xml:space="preserve">
<path fill="#000000" opacity="1.000000" stroke="none" 
	d="
M112.000000,226.000000 
	C74.666672,226.000000 37.833336,226.000000 1.000005,226.000000 
	C1.000003,151.000000 1.000003,76.000015 1.000002,1.000015 
	C75.999992,1.000010 150.999985,1.000010 225.999969,1.000005 
	C225.999985,75.999985 225.999985,150.999969 226.000000,225.999969 
	C188.166672,226.000000 150.333328,226.000000 112.000000,226.000000 
M72.705345,125.416176 
	C71.083298,136.048904 76.270485,143.053741 86.661255,144.262329 
	C98.132179,145.596558 107.007645,138.887955 107.939102,128.359695 
	C108.630577,120.543961 105.137177,114.730858 99.999237,109.275009 
	C97.385834,106.499893 95.455429,102.938118 93.880104,99.433563 
	C93.504044,98.596962 95.782410,96.567169 96.839897,95.086174 
	C98.103767,96.125191 99.459328,97.073479 100.604172,98.230293 
	C101.626068,99.262878 102.318901,101.419189 103.324219,101.527542 
	C107.044655,101.928520 110.834328,101.687119 114.498886,101.687119 
	C115.614288,92.295120 112.358040,86.182991 105.392654,83.703094 
	C96.894402,80.677460 86.745720,83.514725 82.029381,90.234756 
	C77.207184,97.105621 77.807693,106.520035 83.681519,113.809113 
	C85.658554,116.262497 88.165565,118.308640 89.997665,120.852524 
	C91.389328,122.784866 92.661095,125.152473 92.896225,127.438515 
	C93.038269,128.819534 91.098038,130.414719 90.093414,131.913681 
	C88.993309,130.714539 87.961525,129.442001 86.774147,128.336609 
	C85.554222,127.200912 84.277214,125.512299 82.858459,125.324371 
	C79.207344,124.840744 75.463997,125.053497 71.747421,124.177391 
	C72.443153,123.450951 73.123230,122.708664 73.838364,122.001846 
	C74.861908,120.990219 76.413307,120.183418 76.845291,118.970703 
	C77.759552,116.404068 78.095184,113.631332 78.838509,110.143761 
	C73.919670,110.143761 69.653999,110.066139 65.392014,110.158600 
	C53.509682,110.416344 56.248329,107.984894 53.239197,120.103523 
	C53.134342,120.525803 53.389824,121.037552 53.519150,121.732048 
	C54.901814,121.959305 56.259335,122.182434 57.661648,122.412926 
	C55.872772,127.959526 52.060993,131.793884 48.923065,130.859573 
	C44.037910,129.405045 44.003544,125.014618 44.049419,121.026192 
	C44.137348,113.381226 46.169361,106.170204 50.625618,99.940613 
	C51.893612,98.168030 54.584209,97.413094 56.622425,96.191483 
	C57.792824,98.219841 58.972294,100.243065 60.125973,102.280884 
	C60.357304,102.689499 60.490444,103.153702 60.695076,103.656738 
	C65.336273,103.656738 69.898651,103.656738 74.409477,103.656738 
	C76.278084,88.866501 65.815269,79.423470 52.161636,83.757385 
	C47.947906,85.094910 43.647438,87.870895 40.699677,91.163673 
	C31.900160,100.993111 29.449978,113.169289 30.084946,126.006050 
	C30.526369,134.930023 35.475128,141.714417 42.371048,143.671844 
	C50.927376,146.100571 60.986336,142.813889 65.882782,135.633499 
	C68.180389,132.264175 69.887833,128.492416 72.705345,125.416176 
M117.136681,114.604012 
	C113.013725,123.928154 108.890770,133.252304 104.315590,143.599167 
	C108.022713,143.599167 110.642174,143.400177 113.219727,143.644119 
	C117.470634,144.046402 120.668648,143.264084 121.844559,138.440842 
	C122.089928,137.434372 123.847282,136.213989 124.993813,136.117905 
	C128.580154,135.817413 132.207611,136.007538 135.862900,136.007538 
	C136.008179,138.752304 136.120148,140.867722 136.236786,143.071564 
	C141.227097,143.071564 145.906097,143.071564 150.572220,143.071564 
	C150.572220,123.128395 150.572220,103.714523 150.572220,83.781174 
	C145.099823,83.781174 139.965378,83.922401 134.844055,83.724281 
	C132.098862,83.618073 130.703354,84.564804 129.596893,87.118576 
	C125.698868,96.115456 121.526657,104.993530 117.136681,114.604012 
M162.987900,95.316498 
	C159.364243,111.109695 155.740585,126.902885 151.909027,143.602173 
	C155.463226,143.602173 158.276062,143.280991 160.985535,143.673492 
	C165.664566,144.351349 167.701965,141.968338 167.416550,137.924164 
	C167.266983,135.805206 165.337189,133.811920 163.985184,131.350037 
	C165.394302,131.350037 167.135223,131.403915 168.871948,131.341553 
	C183.927353,130.801056 193.791901,122.373184 196.632919,107.650452 
	C199.427948,93.166138 192.343430,84.273254 177.629898,83.796761 
	C166.100479,83.423386 166.100479,83.423386 162.987900,95.316498 
z"/>
<path fill="#0CDF48" opacity="1.000000" stroke="none" 
	d="
M71.862732,124.903030 
	C69.887833,128.492416 68.180389,132.264175 65.882782,135.633499 
	C60.986336,142.813889 50.927376,146.100571 42.371048,143.671844 
	C35.475128,141.714417 30.526369,134.930023 30.084946,126.006050 
	C29.449978,113.169289 31.900160,100.993111 40.699677,91.163673 
	C43.647438,87.870895 47.947906,85.094910 52.161636,83.757385 
	C65.815269,79.423470 76.278084,88.866501 74.409477,103.656738 
	C69.898651,103.656738 65.336273,103.656738 60.695076,103.656738 
	C60.490444,103.153702 60.357304,102.689499 60.125973,102.280884 
	C58.972294,100.243065 57.792824,98.219841 56.622425,96.191483 
	C54.584209,97.413094 51.893612,98.168030 50.625618,99.940613 
	C46.169361,106.170204 44.137348,113.381226 44.049419,121.026192 
	C44.003544,125.014618 44.037910,129.405045 48.923065,130.859573 
	C52.060993,131.793884 55.872772,127.959526 57.661648,122.412926 
	C56.259335,122.182434 54.901814,121.959305 53.519150,121.732048 
	C53.389824,121.037552 53.134342,120.525803 53.239197,120.103523 
	C56.248329,107.984894 53.509682,110.416344 65.392014,110.158600 
	C69.653999,110.066139 73.919670,110.143761 78.838509,110.143761 
	C78.095184,113.631332 77.759552,116.404068 76.845291,118.970703 
	C76.413307,120.183418 74.861908,120.990219 73.838364,122.001846 
	C73.123230,122.708664 72.443153,123.450951 71.789551,124.574806 
	C71.831680,124.972221 71.862732,124.903030 71.862732,124.903030 
z"/>
<path fill="#0CDF48" opacity="1.000000" stroke="none" 
	d="
M117.297562,114.260345 
	C121.526657,104.993530 125.698868,96.115456 129.596893,87.118576 
	C130.703354,84.564804 132.098862,83.618073 134.844055,83.724281 
	C139.965378,83.922401 145.099823,83.781174 150.572220,83.781174 
	C150.572220,103.714523 150.572220,123.128395 150.572220,143.071564 
	C145.906097,143.071564 141.227097,143.071564 136.236786,143.071564 
	C136.120148,140.867722 136.008179,138.752304 135.862900,136.007538 
	C132.207611,136.007538 128.580154,135.817413 124.993813,136.117905 
	C123.847282,136.213989 122.089928,137.434372 121.844559,138.440842 
	C120.668648,143.264084 117.470634,144.046402 113.219727,143.644119 
	C110.642174,143.400177 108.022713,143.599167 104.315590,143.599167 
	C108.890770,133.252304 113.013725,123.928154 117.297562,114.260345 
M137.134430,108.778046 
	C137.033676,106.888123 136.932938,104.998199 136.832199,103.108269 
	C136.566574,103.053352 136.300949,102.998436 136.035324,102.943520 
	C133.459885,109.480400 130.884460,116.017281 128.234818,122.742508 
	C136.928391,123.447510 136.928864,123.447517 137.057144,115.639938 
	C137.089676,113.659775 137.118225,111.679550 137.134430,108.778046 
z"/>
<path fill="#0CDE48" opacity="1.000000" stroke="none" 
	d="
M163.040894,94.903168 
	C166.100479,83.423386 166.100479,83.423386 177.629898,83.796761 
	C192.343430,84.273254 199.427948,93.166138 196.632919,107.650452 
	C193.791901,122.373184 183.927353,130.801056 168.871948,131.341553 
	C167.135223,131.403915 165.394302,131.350037 163.985184,131.350037 
	C165.337189,133.811920 167.266983,135.805206 167.416550,137.924164 
	C167.701965,141.968338 165.664566,144.351349 160.985535,143.673492 
	C158.276062,143.280991 155.463226,143.602173 151.909027,143.602173 
	C155.740585,126.902885 159.364243,111.109695 163.040894,94.903168 
M179.128876,114.533165 
	C182.284988,109.737633 184.130569,104.186592 181.400848,99.189362 
	C180.335800,97.239609 175.088898,97.565834 171.737778,96.900383 
	C171.587036,96.870453 171.347672,97.286842 170.984329,97.669281 
	C172.568497,98.721077 174.156769,99.775604 175.807022,100.871292 
	C174.601151,106.587921 173.431091,112.134682 171.912384,119.334343 
	C174.983368,117.404640 176.811890,116.255653 179.128876,114.533165 
z"/>
<path fill="#0CDE48" opacity="1.000000" stroke="none" 
	d="
M71.794586,124.980103 
	C75.463997,125.053497 79.207344,124.840744 82.858459,125.324371 
	C84.277214,125.512299 85.554222,127.200912 86.774147,128.336609 
	C87.961525,129.442001 88.993309,130.714539 90.093414,131.913681 
	C91.098038,130.414719 93.038269,128.819534 92.896225,127.438515 
	C92.661095,125.152473 91.389328,122.784866 89.997665,120.852524 
	C88.165565,118.308640 85.658554,116.262497 83.681519,113.809113 
	C77.807693,106.520035 77.207184,97.105621 82.029381,90.234756 
	C86.745720,83.514725 96.894402,80.677460 105.392654,83.703094 
	C112.358040,86.182991 115.614288,92.295120 114.498886,101.687119 
	C110.834328,101.687119 107.044655,101.928520 103.324219,101.527542 
	C102.318901,101.419189 101.626068,99.262878 100.604172,98.230293 
	C99.459328,97.073479 98.103767,96.125191 96.839897,95.086174 
	C95.782410,96.567169 93.504044,98.596962 93.880104,99.433563 
	C95.455429,102.938118 97.385834,106.499893 99.999237,109.275009 
	C105.137177,114.730858 108.630577,120.543961 107.939102,128.359695 
	C107.007645,138.887955 98.132179,145.596558 86.661255,144.262329 
	C76.270485,143.053741 71.083298,136.048904 72.284042,125.159607 
	C71.862732,124.903030 71.831680,124.972221 71.794586,124.980103 
z"/>
<path fill="#010502" opacity="1.000000" stroke="none" 
	d="
M137.141525,109.238693 
	C137.118225,111.679550 137.089676,113.659775 137.057144,115.639938 
	C136.928864,123.447517 136.928391,123.447510 128.234818,122.742508 
	C130.884460,116.017281 133.459885,109.480400 136.035324,102.943520 
	C136.300949,102.998436 136.566574,103.053352 136.832199,103.108269 
	C136.932938,104.998199 137.033676,106.888123 137.141525,109.238693 
z"/>
<path fill="#010602" opacity="1.000000" stroke="none" 
	d="
M178.884644,114.819916 
	C176.811890,116.255653 174.983368,117.404640 171.912384,119.334343 
	C173.431091,112.134682 174.601151,106.587921 175.807022,100.871292 
	C174.156769,99.775604 172.568497,98.721077 170.984329,97.669281 
	C171.347672,97.286842 171.587036,96.870453 171.737778,96.900383 
	C175.088898,97.565834 180.335800,97.239609 181.400848,99.189362 
	C184.130569,104.186592 182.284988,109.737633 178.884644,114.819916 
z"/>
</svg>